<?xml version="1.0" encoding="UTF-8"?>
<svg width="93px" height="24px" viewBox="0 0 93 24" version="1.1" xmlns="http://www.w3.org/2000/svg" xmlns:xlink="http://www.w3.org/1999/xlink">
    <!-- Generator: Sketch 63.1 (92452) - https://sketch.com -->
    <title>Waider</title>
    <desc>Created with Sketch.</desc>
    <g id="Page-1" stroke="none" stroke-width="1" fill="none" fill-rule="evenodd">
        <g id="Tabless-Copy" transform="translate(-163.000000, -52.000000)" fill="#A6A8BC" fill-rule="nonzero">
            <path d="M195.878,75.374 L199.176,72.382 L198.768,71.804 L197.578,72.756 C197.068,72.246 196.83,71.498 196.83,70.58 L196.83,57.32 C196.83,56.232 197.374,55.076 198.428,53.886 L198.156,53.75 L196.048,55.042 L193.532,52.696 L190.302,56.096 L190.846,56.606 L191.832,55.62 L192.988,56.81 L192.988,61.162 C192.07,61.434 191.356,61.57 190.846,61.57 C190.37,61.57 189.724,61.434 188.908,61.162 L188.908,52.696 L188.194,52.696 C187.82,53.512 187.14,53.92 186.222,53.92 C185.78,53.92 185.168,53.784 184.352,53.512 C182.72,52.968 181.768,52.696 181.53,52.696 L181.224,52.696 C180.034,52.696 179.048,53.206 178.266,54.26 C177.654,55.11 177.246,56.164 177.042,57.49 L177.416,57.626 C177.79,56.708 178.402,56.062 179.286,55.722 C179.864,55.484 180.782,55.382 181.972,55.382 L183.4,55.382 C184.046,55.382 184.658,55.314 185.304,55.212 L185.338,55.348 C183.196,56.606 181.428,58.17 180.068,60.04 C178.538,62.148 177.79,64.324 177.79,66.602 C177.79,67.724 178.028,68.948 178.504,70.274 C177.79,71.056 177.042,71.702 176.26,72.212 L176.26,52.696 L175.444,52.696 C174.594,53.614 173.71,54.09 172.792,54.09 C172.35,54.09 171.772,53.988 171.092,53.75 C169.256,53.138 168.27,52.832 168.1,52.798 L167.148,52.764 C165.788,52.73 164.734,53.342 163.952,54.6 C163.306,55.654 163,56.912 163,58.34 L163.442,58.476 C163.884,57.49 164.292,56.81 164.666,56.402 C165.244,55.824 165.958,55.552 166.876,55.552 L167.726,55.552 L169.596,55.654 C170.106,55.688 170.888,55.484 171.942,55.11 L172.01,55.246 C168.236,57.32 165.856,60.074 164.938,63.508 C164.632,64.664 164.462,65.786 164.462,66.908 C164.462,69.05 165.04,70.92 166.23,72.518 C167.454,74.286 169.698,75.34 171.874,75.34 C172.384,75.34 172.962,75.272 173.642,75.102 C175.376,74.728 177.076,73.3 178.81,70.886 C180.204,73.878 182.346,75.374 185.168,75.374 C187.548,75.374 190.166,73.98 193.056,71.192 C193.328,73.266 194.076,74.422 195.878,75.374 Z M188.194,72.416 C186.154,72.416 184.42,71.838 182.992,70.648 C185.746,69.118 186.8,67.282 186.8,64.12 L186.8,57.082 C186.8,55.79 187.276,54.804 188.194,54.09 L188.194,72.416 Z M174.9,72.518 C172.962,72.518 171.262,71.906 169.868,70.648 C171.296,69.798 172.282,68.914 172.826,67.996 C173.404,67.044 173.676,65.752 173.676,64.12 L173.676,57.354 C173.676,55.756 174.118,55.042 175.478,54.09 L175.478,72.416 L174.9,72.518 Z M182.516,70.138 C181.36,68.472 180.782,66.738 180.782,64.868 C180.782,62.998 181.258,61.196 182.244,59.462 C183.23,57.728 184.522,56.368 186.12,55.382 L186.222,55.484 C184.59,57.422 183.774,59.36 183.774,61.298 L183.774,66.602 C183.774,68.064 183.366,69.22 182.516,70.138 Z M169.392,70.138 C167.998,68.608 167.284,66.772 167.284,64.698 C167.284,62.794 167.794,60.958 168.848,59.224 C169.902,57.49 171.296,56.198 172.996,55.382 L173.098,55.484 C171.364,57.524 170.514,59.462 170.514,61.298 L170.514,66.602 C170.514,68.2 170.14,69.39 169.392,70.138 Z M192.988,65.412 C192.444,65.242 191.764,65.14 190.948,65.14 C190.166,65.14 189.486,65.242 188.942,65.412 L188.942,61.91 C189.554,62.148 190.166,62.25 190.778,62.25 C191.288,62.25 192.002,62.148 192.988,61.91 L192.988,65.412 Z M188.942,72.212 L188.908,66.092 C189.69,65.854 190.37,65.752 190.948,65.752 C191.526,65.752 192.206,65.854 192.988,66.092 L192.988,70.308 C191.662,71.226 190.336,71.838 188.942,72.212 Z M202.61,75.136 L207.234,71.43 C207.234,73.096 207.948,74.32 209.41,75.102 L212.334,72.654 L211.96,72.348 L211.348,72.654 C210.906,72.518 210.566,72.178 210.396,71.6 L210.396,62.692 C210.634,61.774 211.008,60.924 211.552,60.074 L211.484,59.938 L210.532,60.686 L205.704,59.088 C204.65,60.074 203.46,60.516 202.202,60.414 L201.76,60.38 L203.392,64.63 C201.148,66.636 200.026,68.676 200.026,70.784 C200.026,72.178 200.842,73.64 202.44,75.136 L202.61,75.136 Z M207.234,66.262 L203.732,64.562 L202.304,60.686 L207.234,62.522 L207.234,66.262 Z M204.718,72.722 C203.392,71.396 202.746,69.968 202.746,68.438 C202.746,67.384 203.086,66.262 203.732,65.106 L207.268,66.874 L207.268,70.546 L204.718,72.722 Z M215.802,57.592 L218.692,54.124 L216.176,54.124 L215.36,57.592 L215.802,57.592 Z M216.482,75.17 L219.576,72.654 L219.236,72.348 L218.624,72.756 C218.08,72.484 217.774,72.11 217.672,71.668 L217.672,62.25 L218.522,61.298 L215.904,59.122 L213.388,61.196 L214.374,62.25 L214.374,71.124 L214.34,71.736 C214.238,73.198 214.952,74.354 216.482,75.17 Z M227.464,75.204 C228.858,74.082 230.524,73.232 232.496,72.586 L232.496,61.4 C232.496,60.89 232.598,60.414 232.768,59.938 C232.19,60.176 231.714,60.55 231.408,61.06 L221.072,54.464 L221.072,57.694 L225.39,60.482 C224.132,61.128 223.112,61.57 222.296,61.774 L222.296,69.9 C222.296,71.09 221.99,71.94 221.344,72.518 C223.588,72.994 225.628,73.878 227.464,75.204 Z M229.266,72.518 L225.458,71.158 L225.458,61.876 L226.58,61.196 L229.266,62.998 L229.266,72.518 Z M238.956,75.068 L241.914,72.994 C242.594,72.518 243.206,72.11 243.784,71.736 L243.41,71.328 L241.166,72.756 L238.31,71.498 L238.31,67.962 C239.772,66.704 241.71,65.242 244.192,63.508 L239.806,59.122 C238.31,60.176 236.78,61.094 235.216,61.808 L235.216,70.886 C235.216,71.872 234.91,72.688 234.264,73.368 C235.896,73.674 237.46,74.252 238.956,75.068 Z M238.276,67.18 L238.276,61.332 L241.506,64.63 L238.276,67.18 Z M250.448,75.102 L253.542,72.45 L253.134,72.042 L252.148,72.756 L250.312,71.328 L250.312,62.522 L251.638,61.502 L253.678,63.508 L255.922,61.57 L253.712,59.156 L250.278,61.774 C250.176,61.06 249.938,60.516 249.598,60.142 C249.326,59.836 248.85,59.496 248.136,59.122 L245.246,61.672 L245.62,62.046 L246.198,61.672 C246.742,62.114 247.014,62.658 247.014,63.236 L247.014,70.07 C247.014,71.192 246.708,72.008 246.096,72.518 C247.694,73.13 249.156,73.98 250.448,75.102 Z" id="Waider"></path>
        </g>
    </g>
</svg>