<?xml version="1.0" encoding="UTF-8"?>
<svg width="50px" height="14px" viewBox="0 0 50 14" version="1.1" xmlns="http://www.w3.org/2000/svg" xmlns:xlink="http://www.w3.org/1999/xlink">
    <!-- Generator: Sketch 63.1 (92452) - https://sketch.com -->
    <title>Group 2</title>
    <desc>Created with Sketch.</desc>
    <g id="Page-1" stroke="none" stroke-width="1" fill="none" fill-rule="evenodd">
        <g id="Tabless-Copy" transform="translate(-1326.000000, -58.000000)" fill="#FFFFFF">
            <g id="Group-2" transform="translate(1326.000000, 58.000000)">
                <g id="noun_User_3267576">
                    <g id="Group">
                        <path d="M8.8592,7.486 C10.508,7.6244 11.8152,9.0176 11.8152,10.7008 L11.8152,11.5124 C11.8152,12.1076 11.4492,12.6136 10.8836,12.7992 C9.4596,13.2668 7.7484,13.54 5.9076,13.54 C4.066,13.54 2.3548,13.2668 0.9316,12.7992 C0.366,12.6132 -1.42108547e-15,12.1076 -1.42108547e-15,11.5124 L-1.42108547e-15,10.7008 C-1.42108547e-15,9.0176 1.3068,7.6244 2.9556,7.486 C3.7724,8.1164 4.796,8.492 5.9076,8.492 C7.0184,8.492 8.042,8.1164 8.8592,7.486 Z" id="Path"></path>
                        <circle id="Oval" cx="5.9072" cy="3.6588" r="3.6588"></circle>
                    </g>
                </g>
                <g id="noun_Shop_2729671" transform="translate(33.000000, 0.000000)" fill-rule="nonzero">
                    <path d="M6.66399989,10.3039998 C6.43999989,10.3039998 6.27199989,10.1359998 6.21599989,9.96799983 L2.57599996,0.951999984 L0.503999991,0.951999984 C-0.111999998,0.951999984 -0.111999998,0 0.503999991,0 L2.85599995,0 C3.07999995,0 3.24799994,0.111999998 3.30399994,0.335999994 L3.80799994,1.56799997 L15.9599997,1.56799997 C16.4639997,1.56799997 16.9679997,1.95999997 16.8559997,2.46399996 L15.6799997,7.33599988 C15.5119997,7.83999987 15.2319997,8.28799986 14.7279997,8.28799986 L6.49599989,8.28799986 L6.94399988,9.35199984 L15.0639997,9.35199984 C15.6799997,9.35199984 15.6799997,10.3039998 15.0639997,10.3039998 L6.66399989,10.3039998 Z M7.95199986,10.6399998 C8.67999985,10.6399998 9.23999984,11.2559998 9.23999984,11.9279998 C9.23999984,12.6559998 8.67999985,13.2719998 7.95199986,13.2719998 C7.22399988,13.2719998 6.66399989,12.6559998 6.66399989,11.9279998 C6.66399989,11.2559998 7.22399988,10.6399998 7.95199986,10.6399998 Z M13.4399998,10.6399998 C14.1679998,10.6399998 14.7839997,11.2559998 14.7839997,11.9279998 C14.7839997,12.6559998 14.1679998,13.2719998 13.4399998,13.2719998 C12.7679998,13.2719998 12.1519998,12.6559998 12.1519998,11.9279998 C12.1519998,11.2559998 12.7679998,10.6399998 13.4399998,10.6399998 Z" id="Shape"></path>
                </g>
            </g>
        </g>
    </g>
</svg>