<?xml version="1.0" encoding="UTF-8"?>
<svg width="337px" height="23px" viewBox="0 0 337 23" version="1.1" xmlns="http://www.w3.org/2000/svg" xmlns:xlink="http://www.w3.org/1999/xlink">
    <!-- Generator: Sketch 63.1 (92452) - https://sketch.com -->
    <title>Group 4</title>
    <desc>Created with Sketch.</desc>
    <g id="Page-1" stroke="none" stroke-width="1" fill="none" fill-rule="evenodd">
        <g id="Tabless" transform="translate(-62.000000, -705.000000)">
            <g id="Group-8" transform="translate(62.000000, 506.000000)">
                <g id="Group-4" transform="translate(0.000000, 199.000000)">
                    <rect id="Rectangle" fill="#9CB3BE" x="0" y="0" width="33" height="23" rx="11.5"></rect>
                    <text id="See-details" font-family="Avenir-Roman, Avenir" font-size="11" font-weight="normal" fill="#FFFFFF">
                        <tspan x="44" y="16">See details</tspan>
                    </text>
                    <path d="M18.4160251,10.1240377 L20.8150999,13.7226499 C20.9682762,13.9524142 20.9061892,14.2628489 20.6764249,14.4160251 C20.5942911,14.470781 20.4977873,14.5 20.3990748,14.5 L15.6009252,14.5 C15.3247828,14.5 15.1009252,14.2761424 15.1009252,14 C15.1009252,13.9012875 15.1301442,13.8047837 15.1849001,13.7226499 L17.5839749,10.1240377 C17.7371511,9.89427338 18.0475858,9.83218644 18.2773501,9.98536267 C18.3322762,10.0219801 18.3794077,10.0691116 18.4160251,10.1240377 Z" id="Triangle" fill="#FFFFFF" transform="translate(18.000000, 12.000000) rotate(-270.000000) translate(-18.000000, -12.000000) "></path>
                    <text id="Read-Article" opacity="0.300000012" font-family="Avenir-Roman, Avenir" font-size="11" font-weight="normal" fill="#FFFFFF">
                        <tspan x="151" y="16">Read Article</tspan>
                    </text>
                    <text id="Camera-specs" opacity="0.300000012" font-family="Avenir-Roman, Avenir" font-size="11" font-weight="normal" fill="#FFFFFF">
                        <tspan x="268" y="16">Camera specs</tspan>
                    </text>
                    <path d="M128.233639,21.7801714 C134.450436,21.7801714 138.462155,17.4657529 136.499264,12.6024717 C134.536374,7.73919042 133.233639,5.65321823 128.233639,3.78017136 C123.233639,1.90712448 119.233639,7.80960861 119.233639,12.7801714 C119.233639,17.7507341 122.016842,21.7801714 128.233639,21.7801714 Z" id="Oval" fill="#9CB3BE" opacity="0.300000012"></path>
                    <path d="M130.233639,20.1151323 C132.146446,20.1151323 135.811973,21.3791817 137.00109,20.1151323 C139.676712,17.2709062 138.360031,10.0562799 137.00109,6.68935104 C135.038199,1.82606979 133.233639,5.65321823 128.233639,3.78017136 C123.233639,1.90712448 117.142819,3.39554611 117.142819,8.36610886 C117.142819,11.5364128 116.184296,18.8761723 119.233639,21.7801714 C120.965211,23.4292087 127.982014,20.1151323 130.233639,20.1151323 Z" id="Oval-Copy" fill="#9CB3BE" opacity="0.200000003"></path>
                    <path d="M245.233639,21.7801714 C251.450436,21.7801714 255.462155,17.4657529 253.499264,12.6024717 C251.536374,7.73919042 250.233639,5.65321823 245.233639,3.78017136 C240.233639,1.90712448 236.233639,7.80960861 236.233639,12.7801714 C236.233639,17.7507341 239.016842,21.7801714 245.233639,21.7801714 Z" id="Oval-Copy-3" fill="#9CB3BE" opacity="0.300000012"></path>
                    <path d="M247.233639,20.1151323 C249.146446,20.1151323 252.811973,21.3791817 254.00109,20.1151323 C256.676712,17.2709062 255.360031,10.0562799 254.00109,6.68935104 C252.038199,1.82606979 250.233639,5.65321823 245.233639,3.78017136 C240.233639,1.90712448 234.142819,3.39554611 234.142819,8.36610886 C234.142819,11.5364128 233.184296,18.8761723 236.233639,21.7801714 C237.965211,23.4292087 244.982014,20.1151323 247.233639,20.1151323 Z" id="Oval-Copy-2" fill="#9CB3BE" opacity="0.200000003"></path>
                    <polyline id="Path" stroke="#FFFFFF" stroke-linejoin="round" transform="translate(128.500000, 12.500000) rotate(-180.000000) translate(-128.500000, -12.500000) " points="130 15 127 12.5 130 10"></polyline>
                    <polyline id="Path-Copy" stroke="#FFFFFF" stroke-linejoin="round" transform="translate(245.500000, 12.500000) rotate(-180.000000) translate(-245.500000, -12.500000) " points="247 15 244 12.5 247 10"></polyline>
                </g>
            </g>
        </g>
    </g>
</svg>